HIERARCHY
ROOT root
{
	OFFSET	0	13.1	24.9
	CHANNELS 6  Xposition Yposition Zposition Xrotation Yrotation Zrotation
	JOINT spine_1
	{
		OFFSET	0	9.99999	0
		CHANNELS 3  Xrotation Yrotation Zrotation
		JOINT spine_2
		{
			OFFSET	0	112	-10
			CHANNELS 3  Xrotation Yrotation Zrotation
			JOINT spine_3
			{
				OFFSET	0	206.5	19.3
				CHANNELS 3  Xrotation Yrotation Zrotation
				JOINT spine_4
				{
					OFFSET	0	110.4	14.6
					CHANNELS 3  Xrotation Yrotation Zrotation
					JOINT neck_1
					{
						OFFSET	0	71.8	-50.3
						CHANNELS 3  Xrotation Yrotation Zrotation
						JOINT neck_2
						{
							OFFSET	0	86.2	-25.8
							CHANNELS 3  Xrotation Yrotation Zrotation
							JOINT head_ee
							{
								OFFSET	0	179.8	-8.7
								CHANNELS 3  Xrotation Yrotation Zrotation
								End Site
								{
									OFFSET	1	0	0
								}
							}
						}
					}
					JOINT left_clavicle
					{
						OFFSET	-43.2	22.4	-70.8
						CHANNELS 3  Xrotation Yrotation Zrotation
						JOINT left_shoulder
						{
							OFFSET	-93.9	-5.79999	48.7
							CHANNELS 3  Xrotation Yrotation Zrotation
							JOINT left_elbow
							{
								OFFSET	-291.4	-30.8	15.2
								CHANNELS 3  Xrotation Yrotation Zrotation
								JOINT left_lowarm_twist
								{
									OFFSET	-110.7	-3.89999	13.6
									CHANNELS 3  Xrotation Yrotation Zrotation
									JOINT left_hand
									{
										OFFSET	-110.7	-3.89999	13.6
										CHANNELS 3  Xrotation Yrotation Zrotation
										JOINT left_ee
										{
											OFFSET	-80.8	-5.10001	12.1
											CHANNELS 3  Xrotation Yrotation Zrotation
											End Site
											{
												OFFSET	1	0	0
											}
										}
									}
								}
							}
						}
					}
					JOINT right_clavicle
					{
						OFFSET	43.2	22.4	-70.8
						CHANNELS 3  Xrotation Yrotation Zrotation
						JOINT right_shoulder
						{
							OFFSET	93.9	-5.79999	48.7
							CHANNELS 3  Xrotation Yrotation Zrotation
							JOINT right_elbow
							{
								OFFSET	291.4	-30.8	15.2
								CHANNELS 3  Xrotation Yrotation Zrotation
								JOINT right_lowarm_twist
								{
									OFFSET	110.7	-3.89999	13.6
									CHANNELS 3  Xrotation Yrotation Zrotation
									JOINT right_hand
									{
										OFFSET	110.7	-3.89999	13.6
										CHANNELS 3  Xrotation Yrotation Zrotation
										JOINT right_ee
										{
											OFFSET	80.8	-5.10001	12.1
											CHANNELS 3  Xrotation Yrotation Zrotation
											End Site
											{
												OFFSET	1	0	0
											}
										}
									}
								}
							}
						}
					}
				}
			}
		}
	}
	JOINT left_hip
	{
		OFFSET	-82.8	-127.5	0.300001
		CHANNELS 3  Xrotation Yrotation Zrotation
		JOINT left_knee
		{
			OFFSET	-28.2	-396.7	2.2
			CHANNELS 3  Xrotation Yrotation Zrotation
			JOINT left_ankle
			{
				OFFSET	-11.7	-411.3	35.4
				CHANNELS 3  Xrotation Yrotation Zrotation
				JOINT left_toes
				{
					OFFSET	0	-60	-88.6
					CHANNELS 3  Xrotation Yrotation Zrotation
					JOINT left_foot_ee
					{
						OFFSET	-22.5	-16.5	-42.2
						CHANNELS 3  Xrotation Yrotation Zrotation
						End Site
						{
							OFFSET	1	0	0
						}
					}
				}
			}
		}
	}
	JOINT right_hip
	{
		OFFSET	82.8	-127.5	0.300001
		CHANNELS 3  Xrotation Yrotation Zrotation
		JOINT right_knee
		{
			OFFSET	28.2	-396.7	2.2
			CHANNELS 3  Xrotation Yrotation Zrotation
			JOINT right_ankle
			{
				OFFSET	11.7	-411.3	35.4
				CHANNELS 3  Xrotation Yrotation Zrotation
				JOINT right_toes
				{
					OFFSET	0	-60	-88.6
					CHANNELS 3  Xrotation Yrotation Zrotation
					JOINT right_foot_ee
					{
						OFFSET	22.5	-16.5	-42.2
						CHANNELS 3  Xrotation Yrotation Zrotation
						End Site
						{
							OFFSET	1	0	0
						}
					}
				}
			}
		}
	}
}
MOTION
Frames: 6
Frame Time: 0.02
3074.87 672.575 -511.211 159.903 -78.9003 160.902 -0.98446 -0.177188 -1.10243 -0.98379 -0.106683 -1.11147 -0.981178 0.148288 -1.10669 -0.982887 -0.0283421 -1.11622 -19.4584 9.79845 7.96066 -19.5679 14.7837 11.3988 -0.0 0.0 -0.0 7.55486 13.1008 14.1856 10.1566 -16.6763 69.2987 3.3803 -59.1407 1.91834 11.845 0.264426 -1.48731 -0.0782142 27.7561 10.4745 -0.0 0.0 -0.0 9.92735 -1.46112 -19.4288 -29.0634 18.867 -56.0477 0.587649 16.2306 -0.0837959 -10.0513 0.460588 -1.19804 6.4298 -32.8509 -55.7065 0.0 0.0 0.0 -5.4413 9.64085 1.40902 -25.1701 0.198561 3.82651 39.6814 19.328 -4.98378 -16.4297 0.0 0.0 -0.0 0.0 -0.0 27.5181 -8.51093 -0.223568 -7.43233 -0.2339 -1.11586 -17.3231 24.2441 -3.10059 16.2689 -0.0 -0.0 0.0 0.0 0.0 
3093.07 670.897 -506.23 159.473 -78.3757 160.115 -1.03422 0.0150594 -1.14409 -1.0335 0.0878255 -1.14081 -1.03481 0.345439 -1.0908 -1.03643 0.168843 -1.13166 -18.9508 9.95063 6.76248 -19.1349 15.6242 10.2863 -0.0 0.0 -0.0 7.5879 13.297 14.229 8.54423 -16.2042 69.2464 3.3496 -58.9103 1.89202 11.8296 0.264283 -1.48535 -0.234313 27.6463 9.56796 -0.0 0.0 -0.0 9.92195 -1.1103 -19.4373 -29.3954 19.2701 -56.2054 0.626374 17.2386 -0.0949466 -10.3467 0.477276 -1.23195 6.56699 -33.118 -57.1568 0.0 0.0 0.0 -5.56745 10.4551 1.3315 -28.4533 0.100194 4.32071 37.3227 20.1225 -4.77621 -16.8425 0.0 0.0 -0.0 0.0 -0.0 27.5945 -8.37093 0.251868 -10.1206 -0.282582 -1.52546 -19.4396 27.3055 -3.61265 16.8538 -0.0 -0.0 0.0 0.0 0.0 
3106.96 673.458 -501.591 155.831 -79.4336 157.008 -1.06906 -0.147385 -1.24613 -1.0682 -0.067798 -1.25299 -1.06604 0.220115 -1.23537 -1.06817 0.0222658 -1.25462 -18.3867 8.83471 5.4191 -18.5472 14.1102 8.509 -0.0 0.0 -0.0 7.50756 13.477 14.0783 7.13586 -16.1188 69.3309 3.30907 -58.6014 1.85737 10.7291 0.252706 -1.34525 -0.24421 25.969 8.89219 -0.0 0.0 -0.0 10.3258 -0.873805 -20.2799 -29.6735 18.8537 -55.0176 0.604447 16.6692 -0.0885527 -10.8634 0.50688 -1.29105 6.8197 -33.6618 -60.0003 0.0 0.0 0.0 -5.92805 10.451 -0.661354 -29.1416 0.0759857 4.42358 35.1092 22.0572 -4.59689 -18.1602 0.0 0.0 -0.0 0.0 -0.0 27.8349 -8.11169 0.761687 -12.2622 -0.30758 -1.8531 -21.1871 28.3536 -3.99197 13.2051 -0.0 -0.0 0.0 0.0 0.0 
3118.91 677.632 -491.581 156.729 -79.7955 157.91 -1.10338 -0.132622 -1.20591 -1.10258 -0.055624 -1.21191 -1.10077 0.22331 -1.19246 -1.10276 0.0321959 -1.21276 -18.1289 8.27057 5.11033 -18.2613 13.1596 7.96287 -0.0 0.0 -0.0 7.41741 14.096 13.8815 6.03528 -15.4351 68.9056 3.19676 -57.7157 1.76196 8.90517 0.227602 -1.11364 -0.250188 24.9487 8.47574 -0.0 0.0 -0.0 11.0132 -0.245156 -21.7494 -28.9312 18.6441 -54.3189 0.569228 15.7475 -0.0787216 -11.4548 0.54142 -1.35837 7.00239 -34.072 -62.2429 0.0 0.0 0.0 -5.66344 10.4928 -1.60952 -29.4817 0.0635702 4.47429 33.3883 23.8485 -4.45814 -19.4791 0.0 0.0 -0.0 0.0 -0.0 27.511 -8.62276 -0.154186 -13.2837 -0.315185 -2.00964 -20.6857 28.2877 -3.89406 10.2808 -0.0 -0.0 0.0 0.0 0.0 
3130.3 680.339 -487.835 157.431 -79.9191 159.2 -1.1106 -0.151068 -1.2993 -1.10966 -0.0680913 -1.30628 -1.10737 0.232931 -1.28715 -1.10968 0.0267445 -1.30778 -15.7003 8.24963 4.43526 -15.8076 13.2303 7.01678 -0.0 0.0 -0.0 7.71513 13.9519 14.3995 4.1076 -14.4262 68.5106 2.96707 -55.7588 1.56987 6.71477 0.187728 -0.836694 -0.193287 23.2021 8.14351 -0.0 0.0 -0.0 11.2091 0.569999 -22.2154 -27.6585 18.8257 -54.3107 0.591771 16.3384 -0.0849517 -12.7135 0.617242 -1.50045 7.15295 -34.5 -64.2122 0.0 0.0 0.0 -6.4377 11.2 -2.048 -26.9626 0.148368 4.09702 28.661 26.8442 -3.99643 -20.9309 0.0 0.0 -0.0 0.0 -0.0 27.7031 -8.87647 -0.500377 -15.8712 -0.321954 -2.40656 -19.2198 25.6409 -3.49913 8.20492 -0.0 -0.0 0.0 0.0 0.0 
3144.16 685.123 -485.156 156.959 -80.1134 158.669 -1.44153 -0.178346 -1.34325 -1.44053 -0.0925182 -1.35187 -1.43745 0.227294 -1.33584 -1.43994 0.0134913 -1.35497 -16.1747 7.5419 3.95622 -16.2763 12.1971 6.37492 -0.0 0.0 -0.0 7.9174 14.6959 14.6841 2.6134 -13.6116 69.2764 2.83273 -54.5149 1.45964 4.1188 0.126801 -0.510706 -0.287061 21.3875 6.8964 -0.0 0.0 -0.0 11.2869 1.22328 -22.4214 -27.0381 19.6404 -53.575 0.632973 17.4093 -0.0969117 -13.9577 0.695256 -1.63926 7.23343 -33.8218 -65.8119 0.0 0.0 0.0 -6.74111 12.3887 -2.21053 -27.0773 0.144869 4.11427 27.5051 26.9766 -3.86049 -21.2828 0.0 0.0 -0.0 0.0 -0.0 27.4714 -8.80851 -0.349266 -17.5358 -0.316832 -2.66189 -15.7395 21.8632 -2.74268 8.33205 -0.0 -0.0 0.0 0.0 0.0 
